HIERARCHY
ROOT hip
{
	OFFSET 0.000000 0.000000 0.000000 
	CHANNELS 6 Xposition Yposition Zposition Xrotation Zrotation Yrotation
	JOINT abdomen
	{
		OFFSET 0.000000 3.402643 0.000000 
		CHANNELS 3 Xrotation Zrotation Yrotation
		JOINT chest
		{
			OFFSET 0.000000 8.438565 -0.680529 
			CHANNELS 3 Xrotation Zrotation Yrotation
			JOINT neck
			{
				OFFSET 0.000000 10.207942 -0.272212 
				CHANNELS 3 Xrotation Zrotation Yrotation
				JOINT head
				{
					OFFSET 0.000000 3.130431 0.000000 
					CHANNELS 3 Xrotation Zrotation Yrotation
					End Site
					{
						OFFSET 0.000000 3.130435 0.000000 
					}
				}
			}
			JOINT lCollar
			{
				OFFSET 3.470700 6.669187 -0.816635 
				CHANNELS 3 Yrotation Zrotation Xrotation
				JOINT lShldr
				{
					OFFSET 3.198488 0.000000 0.000000 
					CHANNELS 3 Zrotation Yrotation Xrotation
					JOINT lForeArm
					{
						OFFSET 10.139888 0.000000 0.000000 
						CHANNELS 3 Yrotation Zrotation Xrotation
						JOINT lHand
						{
							OFFSET 8.370511 0.000000 0.000000 
							CHANNELS 3 Zrotation Yrotation Xrotation
							End Site
							{
								OFFSET 4.083176 0.000000 0.000000 
							}
						}
					}
				}
			}
			JOINT rCollar
			{
				OFFSET -3.470700 6.669187 -0.816635 
				CHANNELS 3 Yrotation Zrotation Xrotation
				JOINT rShldr
				{
					OFFSET -3.198488 0.000000 0.000000 
					CHANNELS 3 Zrotation Yrotation Xrotation
					JOINT rForeArm
					{
						OFFSET -10.139888 0.000000 0.000000 
						CHANNELS 3 Yrotation Zrotation Xrotation
						JOINT rHand
						{
							OFFSET -8.370511 0.000000 0.000000 
							CHANNELS 3 Zrotation Yrotation Xrotation
							End Site
							{
								OFFSET -4.083176 0.000000 0.000000 
							}
						}
					}
				}
			}
		}
	}
	JOINT lThigh
	{
		OFFSET 5.308129 -1.633274 1.361059 
		CHANNELS 3 Xrotation Zrotation Yrotation
		JOINT lShin
		{
			OFFSET -2.041588 -20.007561 0.000000 
			CHANNELS 3 Xrotation Zrotation Yrotation
			JOINT lFoot
			{
				OFFSET 0.000000 -19.190928 -1.224953 
				CHANNELS 3 Xrotation Yrotation Zrotation
				End Site
				{
					OFFSET 0.000000 -2.449906 4.627600 
				}
			}
		}
	}
	JOINT rThigh
	{
		OFFSET -5.308129 -1.633274 1.361059 
		CHANNELS 3 Xrotation Zrotation Yrotation
		JOINT rShin
		{
			OFFSET 2.041588 -20.007561 0.000000 
			CHANNELS 3 Xrotation Zrotation Yrotation
			JOINT rFoot
			{
				OFFSET 0.000000 -19.190928 -1.224953 
				CHANNELS 3 Xrotation Yrotation Zrotation
				End Site
				{
					OFFSET 0.000000 -2.449906 4.627600 
				}
			}
		}
	}
}
MOTION
Frames: 14
Frame Time: 0.011111
30.323343 51.399689 151.907654 -0.124412 0.533109 -168.506927 27.627031 -1.857923 6.479509 -26.227074 -1.803821 1.874810 -9.268618 10.591315 14.784199 1.161376 -9.094035 32.252319 -10.256527 -0.734681 -0.809317 -66.386154 -20.359968 34.644230 -58.866936 9.167465 11.897682 8.524705 12.647240 -57.054085 6.318032 -3.285348 0.526703 72.552803 16.862974 43.028534 55.379349 -8.738595 10.391668 -8.534408 -12.637552 30.765484 -6.605592 -1.079599 -20.917740 30.470314 -5.316428 -4.960640 -30.772293 1.570631 -0.659744 -2.653291 -2.000013 4.036784 30.195908 5.307400 4.875884 -40.729801 -16.230824 -11.228838 
30.342381 51.398609 151.924896 0.047844 0.253917 -168.476349 28.053049 -2.194600 6.268843 -26.422304 -1.632006 1.863803 -9.325178 10.601137 14.804873 1.375544 -9.101856 32.287369 -10.256527 -0.734681 -0.809317 -66.425636 -20.307411 34.654995 -58.770863 9.156497 11.853618 8.524705 12.647240 -57.727913 6.318032 -3.285348 0.526703 72.503723 16.866899 43.059708 55.337341 -8.732721 10.370346 -8.534408 -12.637552 30.492048 -6.219049 -1.258726 -20.912340 30.221531 -5.331734 -4.893339 -30.653900 1.615168 -0.675762 -2.600504 -2.143566 4.328893 30.486174 5.292627 4.887659 -41.175030 -16.033340 -11.377715 
30.337351 51.394657 151.983063 0.009586 0.017669 -169.003906 28.320082 -2.609688 6.480519 -26.695545 -1.647050 1.980305 -9.180324 10.635818 14.909573 1.278910 -9.116979 32.493568 -10.256527 -0.734681 -0.809317 -66.421715 -20.326591 34.567101 -58.930584 9.172759 11.922664 8.524705 12.647240 -57.239635 6.318032 -3.285348 0.526703 72.503723 16.866899 43.128067 55.348103 -8.735737 10.380097 -8.534408 -12.637552 30.462753 -6.136160 -1.507257 -20.830191 30.111790 -5.331488 -4.903077 -30.786259 1.999923 -0.427514 -2.899892 -2.421526 4.606667 30.566425 5.278141 4.930686 -41.044209 -16.224224 -11.405413 
30.331604 51.399689 151.932068 -0.038282 0.105427 -168.525436 28.061537 -2.377972 6.200196 -26.451593 -1.650123 1.875272 -9.256001 10.605927 14.893941 1.253885 -8.932425 32.470161 -10.256527 -0.734681 -0.809317 -66.380836 -20.339127 34.628887 -58.760105 9.154425 11.843480 8.524705 12.647240 -57.718143 6.318032 -3.285348 0.526703 72.527298 16.909113 43.114342 55.315624 -8.727301 10.360595 -8.534408 -12.637552 30.482281 -6.140065 -1.394797 -20.957829 29.981613 -5.340922 -4.884352 -30.652588 1.653621 -0.636097 -2.815575 -2.319522 4.369668 30.666071 5.277102 4.929305 -41.510914 -16.268560 -11.714007 
30.325500 51.398609 151.928482 -0.009570 0.031241 -168.515625 28.118265 -2.470168 6.178078 -26.432077 -1.680030 1.876018 -9.147176 10.799432 14.889881 1.134082 -9.167132 32.506527 -10.256527 -0.734681 -0.809317 -66.326233 -20.418798 34.556931 -58.845268 9.163996 11.887131 8.524705 12.647240 -57.161514 6.318032 -3.285348 0.526703 72.579575 16.954786 43.053501 55.315624 -8.727301 10.360595 -8.534408 -12.637552 30.570168 -6.009967 -1.468623 -20.969353 29.902863 -5.340929 -4.857966 -30.586451 1.583696 -0.699472 -2.789596 -2.409600 4.259830 30.746367 5.272728 4.925473 -41.438026 -16.215418 -11.638475 
30.318678 51.397175 151.922028 -0.028710 -0.072292 -168.515594 28.117277 -2.613355 6.159379 -26.432055 -1.660081 1.884902 -9.140117 10.839036 14.845669 1.148033 -9.211836 32.426411 -10.256527 -0.734681 -0.809317 -66.315041 -20.426731 34.782337 -58.527222 9.134624 11.748003 8.524705 12.647240 -58.089241 6.318032 -3.285348 0.526703 72.589134 16.955938 42.984768 55.358875 -8.738749 10.389847 -8.534408 -12.637552 30.638531 -5.950043 -1.584511 -20.935247 29.901329 -5.346409 -4.877902 -30.603537 1.663574 -0.652879 -2.818447 -2.575109 4.105312 30.717081 5.267594 4.931257 -41.224369 -16.157253 -11.487218 
30.317598 51.395741 151.930634 -0.028718 -0.101628 -168.593719 28.194563 -2.672291 6.183324 -26.480827 -1.618561 1.904048 -9.092619 10.845957 14.850652 1.176014 -9.295333 32.441048 -10.256527 -0.734681 -0.809317 -66.421326 -20.515457 34.657681 -58.367374 9.116769 11.677987 8.524705 12.647240 -58.528698 6.318032 -3.285348 0.526703 72.520927 16.957558 43.124111 55.304684 -8.724894 10.360593 -8.534408 -12.637552 30.785015 -5.973928 -1.618322 -20.923277 29.912817 -5.340718 -4.858786 -30.669514 1.735184 -0.599617 -2.849661 -2.615671 4.121828 30.716640 5.272615 4.922833 -41.144997 -16.163595 -11.425801 
30.318678 51.405434 151.923096 -0.105260 0.099566 -168.486481 28.051666 -2.447707 6.185648 -26.412525 -1.631889 1.873280 -9.081178 10.763294 14.847276 0.950929 -9.231103 32.418579 -10.256527 -0.734681 -0.809317 -66.360619 -20.484646 34.930363 -58.579990 9.138946 11.770867 8.524705 12.647240 -57.952522 6.318032 -3.285348 0.526703 72.497971 16.984322 43.229443 55.262665 -8.718949 10.337817 -8.534408 -12.637552 30.951033 -6.164957 -1.429004 -20.935534 29.932798 -5.335856 -4.878733 -30.645079 1.578067 -0.667720 -2.908551 -2.401200 4.126195 30.726990 5.267641 4.932138 -41.226303 -16.152338 -11.482697 
30.319752 51.398254 151.916977 -0.114810 0.209035 -168.437881 28.016386 -2.312822 6.153998 -26.363728 -1.624581 1.851952 -8.892822 10.906041 14.914275 0.764452 -9.531003 32.570690 -10.256527 -0.734681 -0.809317 -66.404221 -20.552155 34.703869 -58.770863 9.156497 11.853618 8.524705 12.647240 -57.307991 6.318032 -3.285348 0.526703 72.485855 17.002546 43.288406 55.357639 -8.733197 10.381907 -8.534408 -12.637552 31.126812 -6.238996 -1.318046 -20.998148 29.922737 -5.340757 -4.859668 -30.617676 1.516413 -0.736466 -2.927081 -2.302924 4.040327 30.756397 5.267714 4.944467 -41.123962 -16.162960 -11.420747 
30.318678 51.379936 151.915192 -0.095688 0.048805 -168.476624 28.098116 -2.493273 6.017618 -26.353968 -1.567206 1.829624 -8.865067 10.914917 14.897967 0.625384 -9.608863 32.555962 -10.256527 -0.734681 -0.809317 -66.424042 -20.595501 34.619919 -58.612587 9.144062 11.781738 8.524705 12.647240 -57.708385 6.318032 -3.285348 0.526703 72.455894 17.008780 43.377430 55.432304 -8.746803 10.414509 -8.534408 -12.637552 31.253763 -6.119904 -1.471918 -20.959208 29.901188 -5.351356 -4.859718 -30.498287 1.592373 -0.705966 -2.927331 -2.469001 4.014975 30.795940 5.272665 4.929805 -41.056576 -16.128166 -11.349615 
30.316879 51.387836 151.918427 -0.143572 -0.068589 -168.554489 28.096951 -2.678043 5.999810 -26.383223 -1.536144 1.848653 -8.804494 10.803521 14.924536 0.495143 -9.414639 32.575745 -10.256527 -0.734681 -0.809317 -66.397064 -20.680147 34.529381 -58.697777 9.153936 11.826836 8.524705 12.647240 -57.132214 6.318032 -3.285348 0.526703 72.471840 16.961483 43.340843 55.411831 -8.746978 10.412679 -8.534408 -12.637552 31.165871 -6.099454 -1.587683 -20.813730 29.821470 -5.351248 -4.862406 -30.378241 1.686852 -0.685848 -3.013291 -2.604214 4.084503 30.855495 5.267814 4.953189 -41.091301 -16.040461 -11.339148 
30.312929 51.396095 151.901535 -0.162670 -0.113319 -168.476212 28.059378 -2.720897 5.955230 -26.344160 -1.517890 1.846763 -8.738023 10.546442 15.033935 0.362910 -8.885518 32.714668 -10.256527 -0.734681 -0.809317 -66.382545 -20.657646 34.726292 -58.579990 9.138946 11.770867 8.524705 12.647240 -57.688858 6.318032 -3.285348 0.526703 72.505630 16.926188 43.232285 55.390118 -8.741598 10.401425 -8.534408 -12.637552 31.029156 -6.039024 -1.605414 -20.750801 29.732927 -5.346292 -4.853332 -30.291376 1.653287 -0.711461 -3.029740 -2.631174 4.092700 30.975430 5.263358 4.952804 -41.231148 -15.955035 -11.358530 
30.302872 51.372753 151.837967 0.114589 -0.161263 -167.910461 28.204906 -2.523979 5.549572 -26.129496 -1.481030 1.712280 -8.618684 10.472912 15.162144 0.127757 -8.711840 32.917786 -10.256527 -0.734681 -0.809317 -66.375999 -20.736025 34.718578 -58.634266 9.147663 11.793794 8.524705 12.647240 -57.386116 6.318032 -3.285348 0.526703 72.511368 16.956408 43.085423 55.421364 -8.744430 10.414494 -8.534408 -12.637552 30.726421 -5.639427 -1.615789 -20.945026 29.721453 -5.355918 -4.854803 -30.211451 1.351942 -0.872409 -2.512307 -2.610468 3.727325 30.995029 5.258301 4.982347 -41.634613 -15.775453 -11.510295 
30.308262 51.375626 151.899384 -0.009569 -0.212891 -168.466797 28.315981 -2.816189 5.863276 -26.334414 -1.489777 1.825732 -8.810794 10.499601 15.097853 0.339318 -8.655563 32.837620 -10.256527 -0.734681 -0.809317 -66.329849 -20.727718 34.882275 -58.538136 9.136141 11.748374 8.524705 12.647240 -57.610725 6.318032 -3.285348 0.526703 72.505630 16.926188 43.046738 55.485264 -8.754950 10.435892 -8.534408 -12.637552 30.462753 -5.806486 -1.704692 -20.811663 29.721306 -5.360822 -4.836600 -30.329924 1.667853 -0.688766 -2.907790 -2.732443 3.967648 31.044876 5.258506 4.977049 -41.165745 -15.745594 -11.205137 
